<?xml version="1.0" standalone="no"?>
<!DOCTYPE svg PUBLIC "-//W3C//DTD SVG 20010904//EN"
 "http://www.w3.org/TR/2001/REC-SVG-20010904/DTD/svg10.dtd">
<svg version="1.0" xmlns="http://www.w3.org/2000/svg"
 width="512.000000pt" height="512.000000pt" viewBox="0 0 512.000000 512.000000"
 preserveAspectRatio="xMidYMid meet">
<metadata>
Created by potrace 1.16, written by Peter Selinger 2001-2019
</metadata>
<g transform="translate(0.000000,512.000000) scale(0.100000,-0.100000)"
fill="#AC6AFF" stroke="none">
<path d="M2455 4283 c-68 -6 -145 -24 -145 -34 0 -11 5 -11 71 1 30 6 111 11
182 11 122 0 162 10 96 23 -32 6 -130 6 -204 -1z"/>
<path d="M2845 4153 c-49 -26 -128 -91 -162 -135 -51 -63 -56 -99 -49 -303 9
-239 12 -265 41 -265 40 0 179 -40 244 -70 75 -36 91 -38 65 -9 -28 32 -145
85 -220 100 -47 9 -69 19 -77 33 -8 14 -12 79 -11 198 1 211 10 242 85 313 65
61 129 89 182 81 63 -10 234 -81 317 -132 118 -72 167 -113 204 -173 19 -31
51 -69 70 -84 20 -15 36 -37 36 -47 0 -26 -94 -96 -153 -114 -55 -16 -174 -93
-235 -152 -51 -49 -52 -48 36 -141 41 -44 66 -63 83 -63 27 0 144 90 144 111
0 24 -22 19 -65 -13 -23 -18 -51 -39 -60 -46 -15 -11 -24 -5 -69 50 -28 35
-51 66 -51 71 0 4 45 41 101 82 97 72 102 75 157 75 34 1 65 7 76 15 32 24 42
18 38 -20 -3 -28 5 -49 43 -110 52 -83 65 -121 55 -150 -5 -13 -57 -41 -171
-90 -134 -57 -164 -74 -164 -90 0 -11 5 -19 10 -18 40 9 352 146 368 161 32
32 25 83 -23 163 -31 53 -39 74 -31 82 18 18 41 -1 89 -74 161 -240 246 -481
274 -772 22 -239 -26 -497 -139 -734 -24 -53 -25 -88 0 -81 39 12 163 340 193
508 33 192 17 453 -41 654 -69 238 -232 518 -357 613 -41 32 -58 52 -63 76 -4
17 -28 64 -54 102 -26 39 -58 89 -71 112 -44 80 -249 206 -431 267 -116 39
-168 44 -214 19z"/>
<path d="M2215 4124 c5 -16 8 -42 6 -59 -10 -128 -3 -215 26 -333 34 -130 58
-189 85 -206 18 -11 173 16 211 36 37 19 47 69 46 230 0 146 -9 213 -23 178
-3 -8 -7 -90 -8 -182 -4 -200 -3 -199 -118 -223 l-75 -16 -21 24 c-23 27 -67
183 -84 301 -11 73 -10 81 8 105 11 16 35 30 61 36 25 6 47 19 53 30 19 36 40
45 110 45 63 0 68 2 68 21 0 21 -3 21 -102 15 -57 -3 -123 -9 -146 -12 -36 -5
-50 -2 -74 16 l-31 23 8 -29z"/>
<path d="M2038 4116 c-68 -29 -233 -125 -276 -161 -21 -17 -32 -38 -37 -66 -6
-36 -27 -60 -187 -217 -99 -97 -209 -215 -244 -262 -132 -176 -233 -418 -273
-659 -29 -172 -28 -198 8 -219 32 -18 41 -45 41 -121 0 -118 47 -309 86 -352
16 -18 16 -19 0 -19 -35 0 -84 132 -110 299 -6 41 -17 76 -24 79 -16 5 -15 -7
3 -114 37 -213 73 -294 129 -294 19 0 27 -8 37 -37 18 -56 75 -168 127 -248
138 -214 339 -392 587 -521 84 -43 114 -54 152 -54 61 0 101 24 138 83 35 55
62 72 138 86 65 12 91 27 118 68 17 25 19 51 19 264 0 277 2 270 -107 314 -89
35 -164 78 -230 132 -113 92 -154 103 -213 55 -19 -16 -92 -68 -162 -116 -71
-48 -128 -91 -128 -96 0 -13 128 -157 146 -164 33 -13 57 -5 90 28 26 26 34
43 34 69 0 49 8 65 41 83 25 13 32 13 57 0 44 -23 152 -126 158 -151 3 -13 -2
-78 -11 -145 -17 -117 -16 -145 6 -123 13 13 39 160 41 231 2 65 -12 86 -116
170 -92 73 -120 78 -184 32 -41 -29 -49 -45 -54 -105 -2 -19 -9 -31 -20 -33
-19 -4 -68 39 -68 59 0 13 40 52 144 141 l68 59 67 -68 c36 -37 100 -89 141
-114 61 -37 75 -50 74 -70 -1 -38 -24 -260 -32 -308 -5 -30 -15 -50 -32 -62
-32 -24 -114 -40 -210 -41 -62 -1 -84 3 -126 25 -181 92 -399 345 -465 540
-23 69 -20 111 12 151 23 30 73 35 105 12 16 -13 17 -18 6 -33 -63 -90 -65
-105 -22 -189 86 -170 334 -409 446 -430 40 -7 84 8 101 35 15 24 53 171 53
205 0 51 -16 24 -43 -71 -31 -109 -47 -133 -89 -133 -133 0 -448 333 -448 473
0 56 41 91 178 151 61 26 124 57 140 67 l30 18 -26 50 c-15 28 -33 51 -39 51
-16 0 -16 -9 2 -40 27 -47 21 -54 -91 -98 -58 -23 -113 -42 -123 -42 -19 0
-57 63 -47 79 3 5 20 11 38 15 78 15 108 27 108 42 0 9 -6 14 -13 11 -7 -2
-39 -10 -72 -17 -75 -15 -105 -33 -105 -64 0 -19 -7 -25 -32 -30 -90 -17 -146
-95 -134 -190 19 -171 265 -482 486 -617 75 -46 128 -53 255 -34 114 17 197
53 266 114 l44 39 3 151 c3 121 0 157 -11 175 -8 12 -66 48 -129 79 -119 59
-188 113 -188 147 0 19 10 24 39 20 8 -1 49 -26 92 -56 42 -30 111 -70 151
-89 115 -53 112 -47 117 -252 1 -96 0 -194 -3 -218 -10 -60 -43 -91 -109 -100
-79 -10 -134 -41 -174 -96 -58 -81 -97 -79 -262 16 -271 156 -473 364 -591
610 -134 280 -155 343 -167 519 -5 82 -9 94 -36 125 -27 32 -29 38 -23 90 19
171 82 395 148 525 57 113 206 326 229 326 4 0 10 -18 14 -41 10 -55 52 -100
126 -134 48 -21 70 -26 101 -21 34 6 46 2 93 -29 79 -53 79 -54 55 -121 -33
-94 -25 -92 -207 -65 -235 35 -256 36 -288 15 -37 -24 -85 -91 -85 -119 0 -44
19 -48 262 -56 127 -5 235 -12 240 -17 13 -13 -1 -189 -16 -200 -6 -5 -127
-12 -269 -16 -288 -7 -286 -8 -253 60 24 51 20 56 -21 32 -47 -27 -53 -35 -53
-75 0 -23 8 -38 28 -53 27 -22 30 -22 302 -15 322 8 320 7 320 88 0 28 5 85
10 124 5 40 7 79 4 87 -4 11 -50 15 -222 20 -119 4 -227 9 -239 12 -33 6 -29
39 7 76 27 26 36 30 68 24 20 -3 115 -16 210 -28 149 -19 175 -20 187 -7 7 8
27 47 43 88 27 69 30 73 41 53 15 -28 37 -28 51 -1 14 26 -3 49 -35 49 -13 0
-25 6 -28 14 -3 7 -39 36 -80 64 -73 48 -76 49 -119 40 -39 -9 -50 -7 -95 16
-63 31 -83 58 -83 109 0 85 97 214 265 353 46 39 49 44 37 63 -7 12 -10 26 -7
31 3 5 42 32 86 59 69 43 120 67 237 112 17 7 22 16 20 32 -4 31 -49 32 -120
3z m-164 -2045 c3 -5 -39 -48 -93 -95 -62 -53 -102 -82 -107 -75 -7 13 22 44
116 123 68 58 75 61 84 47z m450 -237 c23 -22 23 -249 0 -282 -18 -26 -46 -29
-65 -6 -10 12 -10 37 -1 129 19 182 26 199 66 159z"/>
<path d="M1630 4018 c-99 -67 -181 -138 -174 -149 3 -5 28 10 55 35 27 24 85
68 129 98 72 48 94 68 73 68 -5 0 -42 -23 -83 -52z"/>
<path d="M2832 3963 c-74 -36 -102 -99 -103 -232 -1 -85 9 -111 42 -111 24 0
28 7 44 102 19 108 20 134 1 119 -7 -6 -19 -51 -25 -101 -7 -50 -17 -90 -22
-90 -12 0 -11 113 0 164 12 49 65 104 108 112 38 7 139 -21 261 -73 78 -33
118 -37 110 -12 -11 33 -281 139 -351 139 -17 0 -47 -8 -65 -17z"/>
<path d="M2064 3866 c-14 -36 24 -148 106 -311 l81 -160 -33 -25 c-18 -14 -63
-54 -100 -89 -62 -58 -74 -63 -69 -24 1 6 -58 62 -131 123 -142 120 -165 143
-177 188 -13 43 8 80 80 145 67 61 91 68 116 31 12 -18 11 -24 -7 -47 -36 -46
-28 -64 87 -179 l107 -108 -29 -30 c-24 -25 -36 -30 -57 -26 -35 7 -37 -11 -3
-26 23 -11 30 -8 70 32 25 24 45 50 45 56 0 7 -43 58 -95 113 -52 55 -95 108
-95 117 0 9 9 27 20 41 26 33 25 73 -1 107 -43 55 -107 26 -251 -113 -70 -66
-75 -141 -13 -189 12 -9 50 -43 86 -76 62 -57 63 -58 22 -37 -46 23 -53 25
-53 14 0 -14 71 -54 88 -51 9 2 48 -20 86 -49 37 -29 72 -53 76 -53 23 0 15
-37 -20 -92 -87 -133 -116 -227 -127 -396 l-6 -103 -39 -30 c-45 -36 -80 -42
-373 -59 -104 -6 -201 -17 -215 -23 -38 -18 -52 -54 -46 -119 10 -108 53 -168
119 -168 35 0 67 43 67 90 0 21 6 42 13 47 13 10 266 37 357 38 l55 0 42 -80
c23 -44 42 -86 43 -93 0 -7 -21 -25 -47 -40 -57 -33 -113 -81 -94 -82 15 0
158 87 167 102 8 13 -75 204 -98 225 -18 16 -32 16 -246 -1 -125 -10 -232 -22
-238 -27 -6 -5 -9 -30 -6 -62 3 -45 1 -55 -14 -61 -31 -12 -48 18 -52 93 -6
94 -5 94 238 115 303 26 295 24 345 62 l44 35 7 -28 c15 -68 37 -139 59 -189
21 -48 26 -53 46 -45 20 7 27 1 60 -50 52 -80 103 -133 175 -185 111 -79 212
-113 344 -116 58 -1 79 -6 93 -20 22 -22 66 -17 177 19 172 56 341 198 413
346 41 83 82 226 70 238 -5 4 -24 4 -43 1 -32 -7 -36 -12 -60 -83 -15 -41 -40
-97 -55 -124 -39 -67 -177 -204 -245 -242 -77 -44 -194 -81 -265 -85 l-60 -3
-2 33 c-2 48 -15 57 -94 72 -45 7 -105 29 -161 57 -195 98 -298 266 -298 488
0 169 60 315 180 436 224 227 544 225 776 -6 101 -101 153 -210 190 -402 5
-27 101 -65 153 -61 35 3 36 4 39 48 4 60 -31 211 -68 289 -60 127 -219 321
-264 321 -37 0 -25 -26 38 -83 116 -104 200 -243 231 -383 9 -39 15 -89 13
-110 -3 -34 -7 -39 -29 -42 -26 -3 -27 -1 -38 77 -25 172 -84 287 -215 417
-138 137 -269 194 -446 194 -168 0 -297 -56 -425 -185 -63 -63 -90 -100 -123
-165 -58 -120 -75 -198 -70 -345 3 -117 2 -120 -19 -123 -35 -5 -46 30 -47
158 -1 134 12 194 64 305 106 228 298 379 529 416 77 12 91 21 91 60 0 35 -3
36 -33 5 -16 -16 -42 -27 -73 -31 -27 -4 -84 -19 -126 -32 -43 -14 -84 -23
-92 -20 -19 7 -110 189 -160 317 -58 149 -53 138 -62 116z m156 -1651 c13 -14
21 -25 18 -25 -2 0 -15 11 -28 25 -13 14 -21 25 -18 25 2 0 15 -11 28 -25z
m80 -62 c0 -7 -39 17 -46 28 -3 6 5 3 20 -6 14 -10 26 -19 26 -22z m96 -51
c-5 -4 -86 36 -86 43 0 3 20 -5 45 -17 24 -12 43 -23 41 -26z m49 -12 c13 -6
15 -9 5 -9 -8 0 -22 4 -30 9 -18 12 -2 12 25 0z"/>
<path d="M3541 3853 c1 -12 179 -166 185 -160 6 5 -166 167 -178 167 -4 0 -8
-3 -7 -7z"/>
<path d="M2352 3828 c-27 -27 -6 -83 33 -90 13 -2 21 -12 23 -28 8 -58 23
-100 38 -100 10 0 14 6 10 18 -2 9 -10 51 -16 92 -7 41 -18 85 -26 98 -16 24
-43 29 -62 10z"/>
<path d="M2922 3818 c-14 -17 -53 -243 -46 -262 10 -25 32 -18 38 12 2 15 8
59 11 97 4 39 13 88 21 110 7 22 14 43 14 48 0 12 -27 8 -38 -5z"/>
<path d="M3339 3771 c24 -33 27 -60 9 -82 -23 -28 -296 -269 -305 -269 -4 0
-40 17 -80 37 -55 29 -75 35 -84 26 -9 -9 -1 -17 32 -33 24 -12 58 -32 74 -44
44 -33 60 -36 88 -18 59 40 318 278 323 298 6 24 -8 57 -39 92 -29 32 -42 27
-18 -7z"/>
<path d="M3186 3719 c-59 -63 -65 -79 -41 -99 13 -11 24 -4 73 41 71 66 73 69
62 90 -19 35 -38 28 -94 -32z"/>
<path d="M1274 3687 c-78 -80 -160 -185 -151 -193 3 -3 30 26 61 65 30 38 81
97 112 131 81 86 61 85 -22 -3z"/>
<path d="M2981 3684 c-41 -57 -34 -68 12 -18 l34 38 28 -18 c15 -10 30 -15 33
-11 9 8 -44 55 -62 55 -7 0 -27 -21 -45 -46z"/>
<path d="M3040 3554 c-29 -31 -39 -49 -32 -56 14 -14 22 -8 60 46 43 60 25 67
-28 10z"/>
<path d="M1880 3550 c-17 -11 -27 0 89 -104 40 -37 75 -65 77 -63 9 9 -41 86
-83 129 -49 50 -58 54 -83 38z"/>
<path d="M4006 3481 c-4 -6 7 -31 24 -57 65 -93 153 -311 191 -473 23 -96 49
-275 49 -343 0 -30 4 -48 12 -48 17 0 4 201 -22 332 -27 142 -89 319 -156 448
-64 123 -88 158 -98 141z"/>
<path d="M3435 3430 c-95 -59 -142 -96 -133 -105 15 -15 234 128 223 145 -8
13 0 16 -90 -40z"/>
<path d="M3504 3300 c-101 -72 -119 -88 -112 -96 7 -6 152 81 190 114 17 14
16 32 -1 32 -4 0 -39 -22 -77 -50z"/>
<path d="M983 3318 c-48 -59 -137 -304 -173 -473 -31 -145 -38 -411 -15 -565
32 -217 122 -470 215 -605 40 -58 51 -52 14 7 -43 68 -110 217 -142 320 -60
185 -67 240 -67 508 0 220 2 256 23 348 30 134 83 287 133 382 21 41 35 78 30
83 -4 4 -13 2 -18 -5z"/>
<path d="M1415 3271 c-3 -6 3 -14 13 -20 15 -8 257 -85 321 -102 22 -6 25 27
4 34 -10 3 -85 26 -167 51 -164 50 -162 50 -171 37z"/>
<path d="M1020 3135 c-31 -98 -22 -104 12 -9 14 41 23 76 19 79 -4 2 -18 -29
-31 -70z"/>
<path d="M2462 3142 c-68 -25 -154 -84 -197 -137 -190 -231 -110 -583 162
-713 75 -35 82 -37 183 -37 98 0 110 2 173 32 88 42 183 135 222 218 39 82 53
187 36 268 -30 147 -136 284 -269 349 -58 28 -79 32 -162 35 -74 3 -107 -1
-148 -15z m311 -67 c72 -36 159 -126 195 -202 24 -52 27 -70 27 -163 0 -93 -3
-111 -27 -163 -38 -80 -117 -160 -197 -200 -60 -29 -74 -32 -161 -32 -86 0
-101 3 -163 32 -200 95 -291 342 -198 538 45 96 144 181 251 216 14 5 68 7
120 6 81 -3 103 -7 153 -32z"/>
<path d="M2566 2925 c-82 -149 -86 -158 -86 -205 0 -33 6 -55 22 -75 21 -27
21 -28 5 -91 -10 -34 -20 -70 -23 -78 -5 -13 6 -10 52 10 33 14 82 35 109 47
69 30 129 89 172 166 20 36 47 83 60 104 14 22 23 40 21 42 -2 2 -62 14 -133
26 -72 12 -133 25 -138 29 -4 3 -11 26 -15 51 l-8 44 -38 -70z m102 -173 c29
-38 2 -102 -45 -102 -30 0 -63 33 -63 64 0 53 75 80 108 38z"/>
<path d="M3670 3106 c-132 -41 -204 -72 -223 -98 -18 -24 -18 -28 -1 -109 13
-67 16 -115 11 -237 -5 -150 -5 -153 16 -161 12 -5 94 -11 182 -15 88 -4 185
-11 215 -15 63 -9 76 -6 82 17 6 21 -1 44 -12 37 -4 -2 -104 1 -222 7 l-215
12 1 165 c1 110 -4 184 -13 219 -11 46 -11 55 2 76 18 27 161 91 183 82 33
-13 11 -34 -61 -56 -46 -14 -75 -29 -75 -37 0 -9 7 -12 18 -9 9 3 47 13 85 22
59 14 67 19 61 36 -14 47 47 64 85 24 40 -42 105 -348 93 -433 -2 -17 -12 -24
-38 -29 -43 -8 -44 -31 -1 -39 45 -9 85 9 93 41 24 94 -49 433 -107 495 -33
35 -57 36 -159 5z"/>
<path d="M4120 3057 c0 -1 11 -44 23 -95 24 -95 44 -138 32 -67 -10 50 -44
165 -50 165 -3 0 -5 -1 -5 -3z"/>
<path d="M3640 2924 c-75 -17 -81 -21 -73 -53 6 -23 8 -23 77 -16 39 4 81 8
93 10 25 2 73 31 73 45 0 6 -10 6 -26 0 -34 -13 -34 -13 -34 10 0 24 -16 24
-110 4z"/>
<path d="M1635 2840 c-4 -6 5 -10 20 -10 15 0 24 4 20 10 -3 6 -12 10 -20 10
-8 0 -17 -4 -20 -10z"/>
<path d="M1284 2826 c-12 -31 1 -71 26 -82 38 -18 380 -6 380 12 0 11 -34 14
-174 14 l-173 0 5 26 c3 16 -1 30 -9 35 -21 13 -49 11 -55 -5z"/>
<path d="M3647 2830 c-56 -7 -88 -22 -70 -33 11 -6 160 7 168 15 11 11 -5 28
-23 27 -9 -1 -43 -5 -75 -9z"/>
<path d="M4186 2663 c7 -100 9 -111 20 -100 10 10 -7 197 -18 197 -6 0 -7 -37
-2 -97z"/>
<path d="M3597 2703 c-6 -9 -10 -49 -8 -75 2 -26 38 -23 152 13 92 29 124 49
81 49 -16 0 -112 -23 -189 -46 -19 -5 -23 -2 -23 14 0 12 5 24 10 27 6 3 10
10 10 16 0 11 -27 12 -33 2z"/>
<path d="M3366 2538 c-3 -7 -9 -35 -16 -62 -6 -26 -24 -78 -40 -113 -31 -68
-31 -88 -1 -78 10 3 60 -12 113 -34 177 -74 195 -93 163 -179 -20 -54 -98
-209 -120 -238 -13 -18 -14 -18 -8 4 10 39 -16 68 -144 163 -67 50 -123 93
-123 96 0 2 20 29 45 60 43 53 52 78 27 78 -6 0 -33 -27 -59 -60 -27 -33 -75
-81 -108 -108 -68 -55 -215 -130 -290 -148 -67 -16 -102 -35 -116 -62 -9 -15
-13 -96 -13 -269 l-1 -246 24 -26 c16 -17 35 -26 55 -26 45 0 178 39 199 57
25 23 22 54 -23 225 -44 170 -48 208 -22 230 28 25 103 60 117 55 18 -8 106
-192 107 -225 1 -15 -5 -38 -12 -51 -30 -56 -30 -82 -4 -147 20 -52 23 -66 13
-82 -7 -11 -9 -27 -6 -36 6 -14 10 -15 39 -3 44 18 46 43 9 114 -34 64 -38 95
-16 133 28 48 19 105 -32 201 -25 49 -59 100 -74 115 l-28 27 -75 -36 c-102
-48 -113 -68 -98 -161 7 -39 27 -129 44 -199 25 -101 29 -130 19 -136 -7 -5
-44 -14 -83 -21 -84 -16 -100 -9 -110 46 -11 62 -9 423 2 444 6 12 38 27 83
41 39 11 107 37 150 57 75 34 78 35 93 16 44 -55 140 -207 171 -273 33 -68 35
-77 24 -108 -11 -29 -10 -38 3 -58 22 -34 34 -31 38 7 6 59 68 42 68 -18 0
-17 -15 -33 -55 -59 -57 -38 -65 -54 -40 -75 12 -10 24 -6 65 20 67 43 103 86
94 114 -3 11 -32 55 -63 96 -32 41 -77 106 -101 145 -24 38 -72 109 -107 157
-34 48 -63 92 -63 97 0 13 63 61 79 61 21 0 253 -173 261 -194 4 -12 3 -54 -3
-94 -12 -88 -3 -115 48 -139 33 -16 39 -16 63 -2 38 21 95 100 152 212 56 109
55 122 -3 157 -44 28 -51 25 -26 -10 l22 -29 -36 -73 c-60 -122 -119 -208
-142 -208 -23 0 -45 18 -45 35 0 7 23 50 51 96 28 46 64 109 79 139 15 30 39
75 53 100 15 25 27 59 27 76 0 62 -30 83 -246 164 l-82 31 18 37 c26 54 53
159 47 177 -8 18 -26 20 -31 3z"/>
<path d="M3407 2435 c-4 -8 -3 -16 1 -19 4 -2 95 -19 202 -36 232 -37 258 -44
265 -73 3 -12 -6 -62 -21 -112 -14 -49 -28 -97 -31 -107 -3 -10 4 -21 18 -28
19 -11 24 -10 36 6 32 44 71 222 57 260 -19 55 -44 63 -289 94 -126 17 -230
30 -231 30 -1 0 -4 -7 -7 -15z"/>
<path d="M3396 2340 c5 -5 68 -29 141 -54 72 -24 140 -49 152 -55 36 -20 43
-45 30 -111 -14 -75 -10 -81 90 -126 82 -38 81 -38 81 -25 0 5 -24 19 -54 31
-80 32 -93 50 -78 106 37 139 -2 173 -248 219 -47 9 -94 18 -104 20 -11 2 -15
0 -10 -5z"/>
<path d="M3305 2250 c-9 -15 -13 -12 89 -54 92 -38 112 -40 82 -7 -33 36 -159
81 -171 61z"/>
<path d="M4217 2243 c-3 -5 -13 -46 -22 -93 -22 -108 -65 -239 -110 -337 -38
-82 -39 -106 -3 -101 17 2 32 21 58 74 62 124 142 408 127 448 -6 16 -42 22
-50 9z"/>
<path d="M3328 2130 c12 -10 52 -35 88 -55 47 -27 69 -34 77 -26 14 14 15 14
-87 60 -98 46 -112 49 -78 21z"/>
<path d="M3200 1971 c0 -12 118 -117 128 -113 16 5 4 23 -51 71 -57 50 -77 61
-77 42z"/>
<path d="M2552 1928 c-14 -14 -18 -808 -3 -808 22 0 54 39 60 74 3 21 4 197 1
390 -5 342 -6 351 -25 354 -11 1 -26 -3 -33 -10z"/>
<path d="M3746 1868 c-53 -112 -150 -250 -214 -306 -41 -35 -62 -63 -72 -92
-23 -70 -156 -169 -357 -266 -86 -41 -112 -66 -80 -77 49 -17 369 168 442 258
22 26 65 75 96 109 87 93 166 210 222 324 42 85 48 105 36 113 -28 18 -39 8
-73 -63z"/>
<path d="M1980 1856 c0 -9 5 -16 10 -16 6 0 10 4 10 9 0 6 -4 13 -10 16 -5 3
-10 -1 -10 -9z"/>
<path d="M2744 1743 c5 -22 36 -248 36 -260 0 -8 29 -2 35 7 3 6 -1 49 -10 98
-31 163 -36 182 -52 182 -11 0 -13 -7 -9 -27z"/>
<path d="M2925 1761 c-6 -11 26 -121 44 -150 19 -30 19 10 0 75 -22 74 -33 92
-44 75z"/>
<path d="M2996 1751 c-3 -5 1 -14 9 -21 12 -10 15 -10 15 3 0 19 -16 31 -24
18z"/>
<path d="M1070 1733 c0 -16 89 -146 148 -216 27 -32 69 -70 93 -86 24 -16 66
-52 94 -80 27 -28 53 -51 56 -51 4 0 -29 34 -74 75 -140 129 -165 155 -226
244 -84 119 -90 128 -91 114z"/>
<path d="M3829 1596 c-26 -39 -79 -108 -118 -153 -46 -53 -67 -85 -59 -89 22
-14 179 170 231 273 13 23 13 32 4 36 -7 2 -32 -26 -58 -67z"/>
<path d="M3957 1631 c-31 -52 -138 -194 -194 -255 -37 -41 -50 -63 -43 -70 7
-7 -6 -25 -42 -57 -29 -26 -50 -50 -47 -53 8 -9 146 130 220 222 62 76 159
220 159 235 0 19 -38 4 -53 -22z"/>
<path d="M3018 1319 c-9 -5 -63 -21 -119 -35 -146 -36 -141 -32 -262 -178 -50
-60 -91 -69 -148 -32 -49 33 -263 76 -282 57 -21 -21 34 -40 170 -56 36 -5 64
-16 88 -35 78 -62 135 -46 240 65 75 79 63 73 267 130 60 16 96 50 84 80 -6
17 -14 18 -38 4z"/>
<path d="M2457 1254 c-4 -4 -42 -8 -84 -8 -63 -1 -78 -4 -81 -17 -3 -18 35
-29 97 -29 37 1 86 31 79 50 -2 6 -7 8 -11 4z"/>
<path d="M1640 1175 c0 -14 249 -160 258 -150 7 7 9 5 -73 49 -38 21 -93 54
-121 72 -49 32 -64 39 -64 29z"/>
<path d="M3405 1127 c-28 -19 -74 -47 -102 -63 -49 -27 -66 -44 -45 -44 11 0
182 107 202 126 26 25 -4 15 -55 -19z"/>
<path d="M2907 1113 c-27 -8 -46 -17 -43 -20 7 -7 105 17 112 28 7 12 -11 10
-69 -8z"/>
<path d="M2020 989 c-9 -17 -9 -24 2 -34 28 -28 258 -80 377 -87 41 -2 56 1
64 13 22 34 2 45 -104 58 -85 11 -234 42 -310 66 -12 4 -22 -1 -29 -16z"/>
<path d="M2815 945 c-33 -8 -84 -17 -113 -22 -29 -4 -52 -12 -50 -18 7 -25
278 16 278 42 0 16 -34 15 -115 -2z"/>
</g>
</svg>